HIERARCHY
ROOT Hips
{
	OFFSET -0.001795 -0.223333 0.028219
	CHANNELS 6 Xposition Yposition Zposition Zrotation Yrotation Xrotation 
	JOINT LeftUpLeg
	{
		OFFSET 0.069520 -0.091406 -0.006815
		CHANNELS 3 Zrotation Yrotation Xrotation
		JOINT LeftLeg
		{
			OFFSET 0.034277 -0.375199 -0.004496
			CHANNELS 3 Zrotation Yrotation Xrotation
			JOINT LeftFoot
			{
				OFFSET -0.013596 -0.397961 -0.043693
				CHANNELS 3 Zrotation Yrotation Xrotation
				JOINT LeftToe
				{
					OFFSET 0.026358 -0.055791 0.119288
					CHANNELS 3 Zrotation Yrotation Xrotation
					End Site
					{
						OFFSET 0.000000 0.000000 0.000000
					}
				}
			}
		}
	}
	JOINT RightUpLeg
	{
		OFFSET -0.067670 -0.090522 -0.004320
		CHANNELS 3 Zrotation Yrotation Xrotation
		JOINT RightLeg
		{
			OFFSET -0.038290 -0.382569 -0.008850
			CHANNELS 3 Zrotation Yrotation Xrotation
			JOINT RightFoot
			{
				OFFSET 0.015774 -0.398415 -0.042312
				CHANNELS 3 Zrotation Yrotation Xrotation
				JOINT RightToe
				{
					OFFSET -0.025372 -0.048144 0.123348
					CHANNELS 3 Zrotation Yrotation Xrotation
					End Site
					{
						OFFSET 0.000000 0.000000 0.000000
					}
				}
			}
		}
	}
	JOINT Spine
	{
		OFFSET -0.002533 0.108963 -0.026696
		CHANNELS 3 Zrotation Yrotation Xrotation
		JOINT Spine1
		{
			OFFSET 0.005487 0.135180 0.001092
			CHANNELS 3 Zrotation Yrotation Xrotation
			JOINT Spine2
			{
				OFFSET 0.001457 0.052922 0.025425
				CHANNELS 3 Zrotation Yrotation Xrotation
				JOINT Neck
				{
					OFFSET -0.002778 0.213870 -0.042857
					CHANNELS 3 Zrotation Yrotation Xrotation
					JOINT Head
					{
						OFFSET 0.005152 0.064970 0.051349
						CHANNELS 3 Zrotation Yrotation Xrotation
						End Site
						{
							OFFSET 0.000000 0.000000 0.000000
						}
					}
				}
				JOINT LeftShoulder
				{
					OFFSET 0.078845 0.121749 -0.034090
					CHANNELS 3 Zrotation Yrotation Xrotation
					JOINT LeftArm
					{
						OFFSET 0.090977 0.030469 -0.008868
						CHANNELS 3 Zrotation Yrotation Xrotation
						JOINT LeftForeArm
						{
							OFFSET 0.259612 -0.012772 -0.027456
							CHANNELS 3 Zrotation Yrotation Xrotation
							JOINT LeftHand
							{
								OFFSET 0.249234 0.008986 -0.001171
								CHANNELS 3 Zrotation Yrotation Xrotation
								End Site
								{
									OFFSET 0.000000 0.000000 0.000000
								}
							}
						}
					}
				}
				JOINT RightShoulder
				{
					OFFSET -0.081759 0.118833 -0.038615
					CHANNELS 3 Zrotation Yrotation Xrotation
					JOINT RightArm
					{
						OFFSET -0.096012 0.032551 -0.009143
						CHANNELS 3 Zrotation Yrotation Xrotation
						JOINT RightForeArm
						{
							OFFSET -0.253742 -0.013329 -0.021401
							CHANNELS 3 Zrotation Yrotation Xrotation
							JOINT RightHand
							{
								OFFSET -0.255298 0.007772 -0.005559
								CHANNELS 3 Zrotation Yrotation Xrotation
								End Site
								{
									OFFSET 0.000000 0.000000 0.000000
								}
							}
						}
					}
				}
			}
		}
	}
}
MOTION
Frames: 15
Frame Time: 0.050000
0.000000 0.937895 0.000000 -0.575690 -1.244434 7.767972 6.100355 -0.334406 -4.122628 -0.003346 0.176153 -5.137517 4.005342 10.495885 9.457824 0.000000 0.000000 0.000000 -5.107404 0.650863 -7.494216 -1.499445 0.060054 -1.708545 -0.625980 -5.272154 8.813839 0.000000 0.000000 0.000000 5.539956 0.273374 -5.168695 -1.814149 0.869612 -4.295565 -3.603766 3.564441 6.213886 5.310303 -2.406875 -11.397087 0.000000 0.000000 0.000000 -16.295966 -0.644474 -1.924665 -55.610102 -4.661785 -4.521235 -5.026383 -15.125236 1.153654 0.000000 0.000000 0.000000 14.538494 -6.648440 -3.989393 63.481395 4.245634 -3.781342 1.867499 18.934230 1.047185 0.000000 0.000000 0.000000 
-0.000145 0.937459 0.000237 -0.708889 -2.172556 8.510239 5.926834 -0.321252 -3.745191 0.784380 0.187513 -6.572423 4.350812 11.093980 10.018000 0.000000 0.000000 0.000000 -5.136270 0.737945 -8.673414 -1.446301 0.070246 -1.366183 -0.007070 -4.422228 9.647242 0.000000 0.000000 0.000000 6.783598 0.330802 -5.672845 -2.668162 1.215973 -4.868730 -4.269842 4.054881 6.092155 4.949429 -2.097059 -11.782434 0.000000 0.000000 0.000000 -17.169116 -0.069547 -2.358136 -55.013225 -4.566329 -4.466680 -4.039851 -15.068452 1.019884 0.000000 0.000000 0.000000 14.086712 -7.783460 -4.495025 64.667365 3.254895 -4.319021 2.230229 18.971577 1.105283 0.000000 0.000000 0.000000 
-0.000261 0.937293 0.000252 -0.308412 -1.743077 8.435959 5.619443 -0.336368 -3.987338 0.725255 0.147791 -5.565182 4.030411 10.506336 9.516460 0.000000 0.000000 0.000000 -5.359396 0.736147 -8.883517 -1.624096 0.113435 -0.880279 -0.503864 -5.180708 9.099928 0.000000 0.000000 0.000000 6.263236 0.295757 -5.414563 -2.175997 1.015008 -5.835284 -4.736051 3.464224 6.565546 4.480663 -1.848279 -11.572772 0.000000 0.000000 0.000000 -16.920180 -0.722584 -1.913052 -55.386083 -4.763598 -4.475341 -3.162187 -14.062166 0.857291 0.000000 0.000000 0.000000 15.027741 -6.726640 -4.121932 63.664664 3.097258 -4.466717 1.773616 19.158897 1.043600 0.000000 0.000000 0.000000 
-0.000496 0.937407 0.000268 -0.262080 -1.749493 8.823653 5.608356 -0.354030 -4.275299 0.738396 0.158690 -5.839007 4.011594 10.508691 9.714441 0.000000 0.000000 0.000000 -5.529982 0.796458 -9.989629 -1.743384 0.139569 -0.600748 -0.451871 -5.356872 9.900154 0.000000 0.000000 0.000000 6.435534 0.300879 -5.528889 -2.614640 1.194562 -5.500149 -4.340693 2.682366 5.618399 3.673300 -1.458299 -10.860171 0.000000 0.000000 0.000000 -17.250130 -0.290065 -2.020067 -55.759316 -5.242420 -4.190913 -1.763749 -13.519805 0.675557 0.000000 0.000000 0.000000 13.933282 -6.892471 -4.219283 64.286579 2.721787 -4.620119 2.474533 19.617898 1.138301 0.000000 0.000000 0.000000 
-0.000827 0.937887 0.000171 -0.133456 -1.057800 8.750742 5.393817 -0.363459 -4.314277 0.847330 0.153915 -5.871086 3.564262 9.855422 9.915239 0.000000 0.000000 0.000000 -5.413040 0.790710 -10.014777 -2.069171 0.170933 -0.632449 -0.907147 -6.299755 10.264960 0.000000 0.000000 0.000000 6.039013 0.263300 -5.228083 -2.123661 1.001790 -5.531958 -4.447246 2.074513 5.466709 3.128593 -1.043397 -11.405302 0.000000 0.000000 0.000000 -17.453040 -0.383772 -1.962214 -55.812760 -6.079162 -3.790583 -2.141005 -13.030467 0.695540 0.000000 0.000000 0.000000 13.997839 -6.938424 -4.283880 64.008980 2.619368 -4.655286 2.537131 19.674378 1.143248 0.000000 0.000000 0.000000 
-0.001158 0.938426 0.000127 -0.113408 -0.924754 8.908849 5.245813 -0.378300 -4.549895 1.061481 0.132176 -5.648597 3.699288 10.051696 9.699648 0.000000 0.000000 0.000000 -5.309466 0.805912 -10.217447 -2.474974 0.190706 -0.945337 -0.849005 -6.390312 10.972971 0.000000 0.000000 0.000000 5.947577 0.266875 -5.314859 -2.078971 0.985369 -5.656974 -4.147246 1.731599 5.511360 2.751594 -0.826420 -11.370971 0.000000 0.000000 0.000000 -17.669258 -0.239824 -1.987057 -55.823887 -6.461337 -3.616743 -2.226396 -13.028568 0.711606 0.000000 0.000000 0.000000 13.541197 -6.860862 -4.233372 64.238523 2.228441 -4.897912 2.686926 20.149925 1.185207 0.000000 0.000000 0.000000 
-0.001428 0.938989 0.000113 -0.138961 -0.497748 8.971880 5.207932 -0.383525 -4.550147 1.023107 0.151760 -6.039138 3.670614 10.196609 10.490975 0.000000 0.000000 0.000000 -5.122706 0.804655 -10.151366 -2.696136 0.192069 -1.274605 -0.909524 -6.594635 11.446952 0.000000 0.000000 0.000000 5.770502 0.243734 -5.126755 -1.896506 0.915963 -5.609487 -4.078812 1.201010 5.340951 2.806441 -0.801956 -12.130692 0.000000 0.000000 0.000000 -17.690123 -0.129737 -1.983603 -55.829865 -6.790558 -3.449141 -3.142037 -13.200602 0.827979 0.000000 0.000000 0.000000 13.592480 -6.943403 -4.331460 64.190224 1.850472 -5.100422 2.797633 20.543151 1.215673 0.000000 0.000000 0.000000 
-0.001627 0.939393 0.000127 -0.217928 -0.268361 9.249368 5.071146 -0.406226 -4.900607 1.177660 0.137103 -5.890029 3.938038 10.634811 10.349128 0.000000 0.000000 0.000000 -4.851475 0.830494 -10.393254 -2.847155 0.203587 -1.317791 -1.089722 -6.914844 11.452716 0.000000 0.000000 0.000000 5.581591 0.239088 -5.164882 -1.669866 0.826599 -5.730930 -3.879389 1.013589 5.214556 2.711435 -0.730641 -12.282930 0.000000 0.000000 0.000000 -17.623177 -0.060839 -1.993579 -55.767041 -7.093594 -3.289493 -4.507618 -13.426196 0.998389 0.000000 0.000000 0.000000 13.521543 -7.186464 -4.456184 64.332222 1.364908 -5.364542 3.014288 20.819835 1.264716 0.000000 0.000000 0.000000 
-0.001870 0.939968 0.000157 -0.307672 -0.159238 9.241804 5.204404 -0.409159 -4.963683 1.020549 0.141843 -5.801435 4.003387 10.755027 10.367300 0.000000 0.000000 0.000000 -4.711611 0.821948 -10.164935 -2.833653 0.171932 -1.798382 -1.141859 -7.072382 11.704977 0.000000 0.000000 0.000000 5.439953 0.210891 -4.867505 -1.514818 0.767352 -5.981316 -3.567204 0.982359 5.192274 2.746177 -0.704559 -12.760938 0.000000 0.000000 0.000000 -17.419577 0.125887 -2.058255 -55.796778 -7.266063 -3.211891 -5.754170 -13.869434 1.179593 0.000000 0.000000 0.000000 13.779336 -7.402485 -4.606725 63.946266 0.832731 -5.624019 3.178024 20.972687 1.300681 0.000000 0.000000 0.000000 
-0.002112 0.940261 0.000219 -0.395425 0.001255 9.283615 5.226044 -0.415117 -5.057677 0.958627 0.145898 -5.820428 4.248431 11.162487 10.309061 0.000000 0.000000 0.000000 -4.570781 0.826691 -10.168233 -2.923908 0.159222 -2.120701 -1.195631 -7.190891 11.838622 0.000000 0.000000 0.000000 5.393506 0.203267 -4.802823 -1.403770 0.724153 -5.950555 -3.386488 1.084113 5.120352 2.914553 -0.704795 -13.615920 0.000000 0.000000 0.000000 -16.943661 0.147507 -2.046302 -55.940480 -7.622367 -3.048471 -7.180149 -14.014942 1.358451 0.000000 0.000000 0.000000 14.063355 -7.548341 -4.698718 63.827546 0.332948 -5.869924 3.196604 21.002424 1.312283 0.000000 0.000000 0.000000 
-0.002251 0.940440 0.000326 -0.463345 0.099113 9.302763 5.415651 -0.413891 -5.037704 0.794047 0.158773 -5.913238 4.347846 11.374382 10.532985 0.000000 0.000000 0.000000 -4.511630 0.824223 -10.098556 -2.870136 0.141686 -2.330021 -1.264495 -7.373362 12.072317 0.000000 0.000000 0.000000 5.409622 0.192347 -4.689721 -1.270839 0.673721 -6.111492 -3.302375 1.280602 5.216092 2.980571 -0.679857 -14.038291 0.000000 0.000000 0.000000 -16.725324 0.114536 -2.049766 -55.932681 -7.859435 -2.944558 -8.145635 -14.595169 1.532080 0.000000 0.000000 0.000000 14.088554 -7.959928 -4.866899 63.821821 -0.036071 -6.058787 3.195881 20.697717 1.301501 0.000000 0.000000 0.000000 
-0.002217 0.940399 0.000477 -0.507707 0.398172 9.453901 5.660491 -0.424534 -5.209611 0.663096 0.169163 -5.999258 4.415953 11.526105 10.618855 0.000000 0.000000 0.000000 -4.474513 0.819645 -10.022037 -2.919510 0.130356 -2.581931 -1.341906 -7.519153 12.231841 0.000000 0.000000 0.000000 5.430683 0.199134 -4.825072 -1.207912 0.650178 -5.959290 -3.097748 1.311592 5.014180 3.153195 -0.749392 -14.234518 0.000000 0.000000 0.000000 -16.586301 0.165510 -2.095886 -55.943328 -8.027726 -2.846591 -9.064593 -14.673237 1.651435 0.000000 0.000000 0.000000 13.924987 -8.388399 -5.031034 63.763719 -0.544591 -6.289275 3.464315 20.665469 1.346717 0.000000 0.000000 0.000000 
-0.002011 0.940481 0.000611 -0.501724 0.700163 9.540679 5.682600 -0.430120 -5.241176 0.694422 0.171224 -6.094874 4.280902 11.358305 10.765418 0.000000 0.000000 0.000000 -4.451594 0.814747 -9.971407 -3.088659 0.134677 -2.741740 -1.339546 -7.557502 12.561088 0.000000 0.000000 0.000000 5.368974 0.190994 -4.769209 -1.049183 0.590482 -6.013501 -3.018441 1.323946 4.829118 3.437092 -0.905667 -14.242848 0.000000 0.000000 0.000000 -16.790497 0.234899 -2.202324 -55.579029 -7.893822 -2.863729 -9.948703 -15.098176 1.808272 0.000000 0.000000 0.000000 14.160799 -8.806809 -5.251710 63.462186 -0.877440 -6.404301 3.517446 20.380018 1.339764 0.000000 0.000000 0.000000 
-0.001773 0.940479 0.000592 -0.540793 0.862694 9.628890 5.819882 -0.439640 -5.428699 0.661723 0.170106 -6.025914 4.476740 11.720210 10.934249 0.000000 0.000000 0.000000 -4.470903 0.817145 -10.041319 -3.136793 0.136605 -2.779892 -1.208409 -7.290423 12.577845 0.000000 0.000000 0.000000 5.373260 0.191520 -4.805585 -1.001891 0.572968 -5.986538 -2.838286 1.546586 4.639789 3.774332 -1.103582 -14.107517 0.000000 0.000000 0.000000 -16.704074 0.155762 -2.215802 -55.310007 -7.798870 -2.871966 -10.827818 -15.037317 1.905173 0.000000 0.000000 0.000000 14.214120 -9.066309 -5.348713 63.310952 -1.222451 -6.533838 3.383827 20.389846 1.328732 0.000000 0.000000 0.000000 
-0.001585 0.940208 0.000448 -0.542350 0.994326 9.711359 5.953578 -0.445116 -5.534262 0.499080 0.176221 -5.970663 4.519115 11.786032 10.848073 0.000000 0.000000 0.000000 -4.557252 0.814370 -10.067708 -3.078261 0.128838 -2.833968 -1.156386 -7.159144 12.532178 0.000000 0.000000 0.000000 5.418657 0.200148 -4.933778 -1.023581 0.582589 -5.921035 -2.790265 1.676342 4.441005 3.882383 -1.162211 -14.015333 0.000000 0.000000 0.000000 -16.670511 0.288882 -2.324205 -55.085396 -7.451702 -2.997228 -11.165034 -15.365450 1.985815 0.000000 0.000000 0.000000 14.177973 -9.327159 -5.446845 63.199614 -1.176038 -6.458939 3.516769 20.351515 1.351839 0.000000 0.000000 0.000000 
